<?xml version="1.0" standalone="no"?>
<!DOCTYPE svg PUBLIC "-//W3C//DTD SVG 20010904//EN"
 "http://www.w3.org/TR/2001/REC-SVG-20010904/DTD/svg10.dtd">
<svg version="1.0" xmlns="http://www.w3.org/2000/svg"
 width="70.000000pt" height="70.000000pt" viewBox="0 0 70.000000 70.000000"
 preserveAspectRatio="xMidYMid meet">
<metadata>
Created by potrace 1.11, written by Peter Selinger 2001-2013
</metadata>
<g transform="translate(0.000000,70.000000) scale(0.100000,-0.100000)"
fill="#000000" stroke="none">
<path d="M158 677 c-72 -34 -138 -135 -138 -215 0 -49 28 -111 59 -130 l21
-12 -20 37 c-24 46 -25 87 -4 150 20 59 53 105 96 131 43 27 88 38 88 22 0 -6
-4 -9 -8 -6 -10 6 -81 -27 -108 -52 -31 -26 -63 -94 -70 -146 -9 -59 23 -127
74 -158 54 -33 133 -31 194 5 48 28 138 122 138 144 0 19 8 16 52 -18 45 -37
81 -40 111 -11 26 27 45 83 36 108 -4 10 -10 31 -13 46 -7 33 -45 71 -64 63
-7 -2 -10 -1 -7 5 8 13 -30 31 -52 24 -24 -9 -83 -65 -83 -80 0 -26 30 -22 55
7 14 17 25 27 25 22 0 -5 -12 -21 -27 -36 l-28 -26 -103 66 c-111 71 -168 86
-224 60z m132 -17 c0 -5 -4 -10 -10 -10 -5 0 -10 5 -10 10 0 6 5 10 10 10 6 0
10 -4 10 -10z m290 -24 c0 -2 -7 -7 -16 -10 -8 -3 -12 -2 -9 4 6 10 25 14 25
6z m-321 -28 c-2 -2 -21 -19 -42 -37 -20 -19 -37 -29 -37 -22 0 16 49 61 68
61 8 0 13 -1 11 -2z m301 -17 c0 -5 -7 -12 -16 -15 -14 -5 -15 -4 -4 9 14 17
20 19 20 6z m74 -10 c23 -26 25 -95 3 -119 -23 -25 -57 -18 -92 18 -26 27 -26
29 -11 58 16 32 52 62 72 62 6 0 19 -8 28 -19z m-247 -28 c67 -41 72 -53 37
-99 -56 -74 -76 -88 -137 -98 -33 -5 -42 -2 -74 28 -32 29 -37 39 -37 83 -1
57 18 87 69 108 42 18 90 11 142 -22z"/>
<path d="M599 582 c-1 -4 -2 -31 -3 -60 -1 -46 1 -52 18 -50 25 4 35 35 24 74
-7 28 -36 55 -39 36z"/>
<path d="M325 554 c39 -20 65 -44 65 -59 0 -7 -22 -35 -49 -63 -30 -31 -44
-52 -35 -52 30 0 70 29 102 73 l32 46 -32 24 c-44 33 -73 47 -95 47 -12 0 -9
-5 12 -16z"/>
<path d="M619 285 c-5 -19 -3 -31 6 -37 6 -5 6 -8 -2 -8 -7 0 -13 -4 -13 -10
0 -19 25 -5 36 20 8 18 8 27 0 32 -13 9 -25 10 -27 3z"/>
<path d="M442 264 c-18 -20 -8 -44 16 -38 11 4 18 13 17 27 -2 26 -16 31 -33
11z"/>
<path d="M522 273 c-15 -6 31 -53 51 -53 7 0 4 7 -6 14 -10 8 -18 17 -18 20 3
27 -1 30 -27 19z"/>
<path d="M155 221 c-4 -8 32 -11 119 -11 69 0 126 4 126 8 0 12 -237 15 -245
3z"/>
<path d="M79 154 c-2 -56 4 -84 17 -71 13 12 11 77 -3 88 -10 9 -13 6 -14 -17z"/>
<path d="M145 166 c-11 -8 -16 -23 -13 -46 3 -35 22 -44 24 -12 4 41 7 45 13
14 7 -40 26 -43 27 -5 1 52 -20 72 -51 49z"/>
<path d="M236 165 c-17 -18 -16 -77 2 -83 12 -4 17 14 14 51 -1 9 5 17 13 17
19 0 19 16 0 24 -8 3 -21 -1 -29 -9z"/>
<path d="M373 172 c-11 -7 -16 -31 -14 -70 2 -35 21 -16 21 20 0 37 12 30 14
-7 3 -39 21 -34 24 7 2 28 -1 39 -15 47 -11 5 -24 7 -30 3z"/>
<path d="M524 168 c-3 -5 -1 -15 5 -21 6 -6 11 -24 11 -41 0 -33 17 -25 23 11
1 11 9 28 16 37 11 13 11 16 0 17 -8 0 -22 2 -31 4 -10 2 -21 -1 -24 -7z"/>
<path d="M302 128 c2 -24 8 -43 13 -43 6 0 11 19 13 43 3 33 0 42 -13 42 -13
0 -16 -9 -13 -42z"/>
<path d="M460 125 c0 -35 3 -43 15 -39 21 8 21 84 0 84 -11 0 -15 -12 -15 -45z"/>
<path d="M607 156 c-3 -8 -4 -22 -2 -32 2 -11 4 -22 4 -25 1 -11 32 -20 43
-13 7 5 4 12 -7 21 -18 12 -18 13 -1 13 15 0 16 3 6 15 -9 10 -9 15 -1 15 6 0
11 5 11 10 0 15 -47 12 -53 -4z"/>
<path d="M536 53 c-3 -4 -6 -15 -6 -25 0 -24 33 -21 38 3 3 17 -21 33 -32 22z"/>
<path d="M591 51 c-15 -10 -8 -41 9 -41 15 0 25 29 14 40 -5 5 -15 5 -23 1z"/>
<path d="M500 36 c0 -8 4 -17 9 -21 6 -3 9 4 8 15 -1 23 -17 28 -17 6z"/>
<path d="M630 29 c0 -18 2 -19 15 -9 8 7 15 16 15 21 0 5 -7 9 -15 9 -9 0 -15
-9 -15 -21z"/>
</g>
</svg>
